:SAMPLES-PER-SECOND 30
:FRAME-RANGE 1-2009
:FULLY-SPECIFIED
:DEGREES
1821
root  -20.9828 39.0927 -17.0655 1.9467 -7.13907 -0.665329
RightUpLeg  3.75373 -5.56118 -0.429697
RightLeg  15.0362 1.86696 0.82195
RightFoot  -18.4089 -0.154307 -0.482174
RightToes  2.96424e-010 1.2921e-014 -6.02303e-014
Spine  -5.808 -0.334731 4.76272
Spine1  9.13278 0.00263588 -2.35655
HEad  7.35765 9.82094 -2.48464
LeftShoulder1  0.0221732 3.20642 -16.2688
LeftArm  -11.7081 22.9294 -21.6031
LeftForeArm  -14.2408 1.51339 -6.04196
LeftHand  -0.020573 5.46865 5.23718
RightShoulder  1.37709 0.714875 28.2513
RightArm  -29.1101 -2.87428 45.3716
RightForeArm  62.3089 -5.28466 1.69762
RightHand  0.042025 -5.76644 -17.1819
LeftUpLeg  -25.1371 5.38102 3.3924
LeftLeg  15.6454 10.4812 3.61261
LeftFoot  1.64735 0.384589 -3.46643
LeftToes  -1.2485e-010 1.20979e-011 -1.0929e-011
1822
root  -20.688 38.9128 -15.5089 2.40459 -6.04379 -0.570282
RightUpLeg  6.7363 -5.46672 -1.19218
RightLeg  13.3271 0.968336 0.330795
RightFoot  -19.4714 -0.0740759 0.812048
RightToes  2.96424e-010 1.2921e-014 -6.02303e-014
Spine  -6.80047 -0.288486 4.05537
Spine1  9.9125 -0.00079529 -2.37557
HEad  7.12451 13.8662 -2.98839
LeftShoulder1  0.0673722 3.0013 -15.6967
LeftArm  -12.87 20.5735 -22.0265
LeftForeArm  -16.3245 1.27632 -5.71898
LeftHand  0.0265605 6.39389 6.21502
RightShoulder  1.39666 0.817935 27.861
RightArm  -29.2795 -2.23002 45.2734
RightForeArm  62.2984 -5.26071 1.55388
RightHand  0.0509771 -5.82641 -17.2205
LeftUpLeg  -23.565 2.9896 3.84544
LeftLeg  1.90434 17.9528 1.99415
LeftFoot  1.52895 0.553629 -4.98992
LeftToes  -1.2485e-010 1.20979e-011 -1.0929e-011
1823
root  -20.2506 38.6604 -13.8767 2.67348 -4.98186 -0.807755
RightUpLeg  9.20864 -5.88802 -2.10828
RightLeg  13.4734 0.994048 0.242841
RightFoot  -20.3895 0.0673895 2.59682
RightToes  2.96424e-010 1.2921e-014 -6.02303e-014
Spine  -7.43922 -0.223334 4.199
Spine1  10.2573 -0.0291038 -2.26184
HEad  6.67491 20.1463 -4.0361
LeftShoulder1  0.124754 2.72961 -15.0977
LeftArm  -13.6932 17.824 -22.5029
LeftForeArm  -18.8714 0.565117 -5.57593
LeftHand  0.0193661 6.26887 6.09374
RightShoulder  1.41826 0.924454 27.5108
RightArm  -28.9955 -1.76857 44.6477
RightForeArm  61.6791 -5.30184 1.6697
RightHand  0.0637947 -5.90571 -17.4303
LeftUpLeg  -23.0501 1.13662 3.51573
LeftLeg  -6.18416 23.4606 1.13703
LeftFoot  -2.69815 0.282671 -3.52607
LeftToes  -1.2485e-010 1.20979e-011 -1.0929e-011
1824
root  -19.7565 38.6356 -12.2959 2.87149 -3.4879 -0.386978
RightUpLeg  10.7407 -6.51813 -3.95352
RightLeg  15.2729 2.12023 0.486106
RightFoot  -19.5745 0.283103 5.77411
RightToes  2.96424e-010 1.2921e-014 -6.02303e-014
Spine  -7.59889 -0.498876 2.91064
Spine1  10.8201 -0.168227 -1.74171
HEad  5.76139 28.1564 -5.326
LeftShoulder1  0.23997 2.16224 -14.3276
LeftArm  -16.0623 14.0859 -23.4594
LeftForeArm  -23.44 0.903085 -4.9207
LeftHand  0.930904 13.5306 13.7078
RightShoulder  1.45138 1.02462 27.5049
RightArm  -29.1321 -1.49699 43.7869
RightForeArm  61.1645 -5.30312 1.57245
RightHand  0.0705998 -5.95048 -17.4548
LeftUpLeg  -25.412 0.98548 2.47528
LeftLeg  -0.278322 23.0461 2.65342
LeftFoot  -1.77347 0.479884 -5.60523
LeftToes  -1.2485e-010 1.20979e-011 -1.0929e-011
1825
root  -19.1498 38.346 -10.5854 3.18864 -2.53543 0.0263062
RightUpLeg  11.641 -5.20794 -5.44325
RightLeg  18.6206 2.0844 0.560403
RightFoot  -19.8736 0.549284 9.15665
RightToes  2.96424e-010 1.2921e-014 -6.02303e-014
Spine  -9.02505 -0.252009 2.31239
Spine1  12.328 0.0319089 -1.70794
HEad  4.73145 36.429 -5.79696
LeftShoulder1  0.191319 2.36662 -13.6602
LeftArm  -15.9974 8.4305 -23.775
LeftForeArm  -32.9756 1.34446 -5.34371
LeftHand  5.4832 24.6196 31.5594
RightShoulder  1.52338 1.06664 28.879
RightArm  -28.5902 -0.581374 41.6907
RightForeArm  60.1916 -5.37531 1.80347
RightHand  0.0864843 -6.04313 -17.7674
LeftUpLeg  -27.4043 1.40114 1.14249
LeftLeg  5.65563 22.3982 3.34152
LeftFoot  3.2587 -0.0203324 0.00452057
LeftToes  -1.2485e-010 1.20979e-011 -1.0929e-011
1826
root  -18.5554 38.1037 -8.98609 2.07677 -1.88069 0.995956
RightUpLeg  12.3223 -1.12768 -6.4804
RightLeg  24.5181 0.823566 0.190763
RightFoot  -19.0448 0.809377 13.8871
RightToes  2.96424e-010 1.2921e-014 -6.02303e-014
Spine  -7.21815 0.22955 0.96318
Spine1  11.57 0.398567 -1.93275
HEad  4.08188 43.1677 -5.9044
LeftShoulder1  0.262311 1.95337 -12.5726
LeftArm  -17.9093 4.19292 -24.8201
LeftForeArm  -38.906 1.40124 -4.95182
LeftHand  10.5103 28.9917 47.042
RightShoulder  1.59981 1.20833 29.5025
RightArm  -29.0806 -1.1444 40.5187
RightForeArm  60.4279 -5.31887 1.51714
RightHand  0.0891132 -6.03222 -18.4011
LeftUpLeg  -27.0202 0.646268 -0.893297
LeftLeg  10.2501 22.7883 5.03606
LeftFoot  6.76137 -0.437218 2.48595
LeftToes  -1.2485e-010 1.20979e-011 -1.0929e-011
1827
root  -17.8245 38.0677 -7.3852 2.01344 -0.547714 2.29521
RightUpLeg  8.45342 0.0253934 -9.18105
RightLeg  35.9539 2.30099 1.5374
RightFoot  -13.3176 0.22696 18.2931
RightToes  2.96424e-010 1.2921e-014 -6.02303e-014
Spine  -6.9406 0.264551 -0.200492
Spine1  11.2234 0.386306 -2.16967
HEad  5.48136 49.8352 -4.81324
LeftShoulder1  0.340626 1.54199 -12.476
LeftArm  -19.1146 -0.483429 -24.8373
LeftForeArm  -42.8881 2.60627 -4.5951
LeftHand  13.7185 31.2812 54.5388
RightShoulder  1.65973 1.3716 29.5543
RightArm  -30.6859 -1.55109 40.4506
RightForeArm  61.8266 -5.11136 0.57798
RightHand  0.101078 -6.09349 -18.7205
LeftUpLeg  -26.9946 1.70199 -3.93677
LeftLeg  15.0389 20.3581 5.79293
LeftFoot  5.57383 -0.355577 2.16339
LeftToes  -1.2485e-010 1.20979e-011 -1.0929e-011
1828
root  -17.0134 38.2371 -5.81558 1.78035 1.69707 2.67505
RightUpLeg  1.9101 -0.646928 -10.6856
RightLeg  49.9051 0.978122 0.895079
RightFoot  -1.14373 -1.29511 14.3573
RightToes  2.96424e-010 1.2921e-014 -6.02303e-014
Spine  -6.61439 0.0298706 0.0848316
Spine1  10.8799 0.167224 -2.24528
HEad  7.66416 54.832 -3.46672
LeftShoulder1  0.477248 0.763411 -11.8768
LeftArm  -20.1448 -4.61879 -25.2361
LeftForeArm  -45.5568 3.78767 -4.25304
LeftHand  16.0256 33.4811 57.8795
RightShoulder  1.65127 1.54299 28.0875
RightArm  -31.6882 -2.81381 41.8468
RightForeArm  61.7706 -5.03386 0.112655
RightHand  0.142744 -6.40439 -17.9133
LeftUpLeg  -25.1372 0.839846 -6.27529
LeftLeg  16.6585 18.4795 6.01363
LeftFoot  4.26445 -0.657402 4.60581
LeftToes  -1.2485e-010 1.20979e-011 -1.0929e-011
1829
root  -16.2723 38.3454 -4.38533 1.52463 3.82706 3.27399
RightUpLeg  -5.22065 -0.223335 -10.9268
RightLeg  61.6071 -0.662029 -1.86029
RightFoot  8.36583 -0.696081 4.33657
RightToes  2.96424e-010 1.2921e-014 -6.02303e-014
Spine  -6.09737 -0.204096 -0.715859
Spine1  10.9527 -0.198677 -2.00034
HEad  8.75294 58.6222 -3.41092
LeftShoulder1  0.578725 0.145807 -11.3709
LeftArm  -21.0604 -7.84629 -24.9273
LeftForeArm  -46.6385 4.30477 -4.02108
LeftHand  18.4355 37.1193 58.4476
RightShoulder  1.63344 1.59483 27.3379
RightArm  -31.3604 -3.46001 42.3324
RightForeArm  61.7735 -5.07858 0.375015
RightHand  0.0785361 -6.04582 -16.5467
LeftUpLeg  -23.0964 -0.888977 -8.32061
LeftLeg  18.2877 18.0807 6.55805
LeftFoot  1.6915 -0.625041 5.37815
LeftToes  -1.2485e-010 1.20979e-011 -1.0929e-011
1830
root  -15.6113 38.3916 -3.00225 1.30307 6.70125 4.01208
RightUpLeg  -10.2435 0.646496 -11.3679
RightLeg  69.1229 -0.522065 -2.28836
RightFoot  3.37371 -0.719935 5.74919
RightToes  2.96424e-010 1.2921e-014 -6.02303e-014
Spine  -5.75047 -0.643775 -2.48995
Spine1  11.407 -0.959057 -1.47777
HEad  9.74953 60.7318 -3.18318
LeftShoulder1  0.643977 -0.312556 -10.7987
LeftArm  -22.0594 -10.1899 -24.5088
LeftForeArm  -46.6937 4.05636 -3.78869
LeftHand  19.8149 40.5262 56.6551
RightShoulder  1.55712 1.32189 27.6556
RightArm  -30.5912 -3.67744 41.7406
RightForeArm  61.3269 -5.17049 0.823911
RightHand  0.00703482 -5.54872 -15.8611
LeftUpLeg  -20.8085 -2.6861 -10.4304
LeftLeg  19.6185 17.1978 6.7656
LeftFoot  -1.20113 -0.491508 5.61718
LeftToes  -1.2485e-010 1.20979e-011 -1.0929e-011
1831
root  -14.8866 38.5078 -1.55157 1.05295 9.79138 3.83723
RightUpLeg  -14.9773 1.84976 -10.7707
RightLeg  72.6781 -0.229536 -1.79619
RightFoot  1.27214 -0.461239 4.24917
RightToes  2.96424e-010 1.2921e-014 -6.02303e-014
Spine  -5.17439 -1.07431 -2.87425
Spine1  10.9097 -1.6454 -0.998562
HEad  11.2909 62.0335 -2.69088
LeftShoulder1  0.750066 -0.929203 -10.7047
LeftArm  -22.702 -11.4671 -23.7863
LeftForeArm  -45.3675 3.31921 -3.73897
LeftHand  19.8641 43.801 52.2291
RightShoulder  1.46979 1.05224 27.7244
RightArm  -30.0481 -4.61834 41.1912
RightForeArm  59.5652 -5.14388 1.2002
RightHand  -0.0301312 -5.27229 -16.268
LeftUpLeg  -17.9304 -3.41272 -11.6937
LeftLeg  20.0201 15.3457 6.26383
LeftFoot  -3.83843 -0.381092 6.15947
LeftToes  -1.2485e-010 1.20979e-011 -1.0929e-011
1832
root  -14.146 38.6402 -0.0529665 0.615768 12.5385 3.27567
RightUpLeg  -19.2073 4.30538 -9.86379
RightLeg  72.8827 -0.36762 -2.32916
RightFoot  0.431436 -0.517382 5.04272
RightToes  2.96424e-010 1.2921e-014 -6.02303e-014
Spine  -4.7911 -1.1825 -3.05998
Spine1  10.5623 -2.01437 -0.214382
HEad  12.4061 62.3289 -2.2344
LeftShoulder1  0.857289 -1.55996 -10.6042
LeftArm  -23.5928 -12.4738 -23.5021
LeftForeArm  -42.5923 2.94482 -3.50123
LeftHand  17.2708 45.3507 44.3542
RightShoulder  1.38781 0.877555 27.1419
RightArm  -30.6463 -6.13872 41.2056
RightForeArm  57.8268 -4.31525 1.12432
RightHand  -0.0880216 -4.86854 -16.8687
LeftUpLeg  -14.4714 -3.73861 -12.4453
LeftLeg  19.7687 13.6851 5.7348
LeftFoot  -6.19526 -0.294953 7.38455
LeftToes  -1.2485e-010 1.20979e-011 -1.0929e-011
1833
root  -13.3966 38.7136 1.4326 0.361771 16.4207 2.57289
RightUpLeg  -22.7201 6.87464 -8.94311
RightLeg  70.2742 -0.563899 -2.57237
RightFoot  -0.567337 -0.284857 2.97816
RightToes  2.96424e-010 1.2921e-014 -6.02303e-014
Spine  -4.37824 -1.70138 -3.60979
Spine1  9.83823 -2.79698 0.849246
HEad  13.0665 62.2338 -1.49303
LeftShoulder1  0.928363 -2.01626 -10.4108
LeftArm  -24.2164 -13.3813 -23.6759
LeftForeArm  -37.6766 2.94914 -3.3048
LeftHand  11.7651 43.4136 32.7549
RightShoulder  1.24794 0.469416 26.9945
RightArm  -30.9297 -7.59219 40.6532
RightForeArm  56.5835 -3.84599 1.1037
RightHand  -0.104833 -4.74389 -16.6491
LeftUpLeg  -11.3197 -4.13544 -12.9574
LeftLeg  19.8996 10.8518 5.04077
LeftFoot  -8.44562 -0.157759 8.24149
LeftToes  -1.2485e-010 1.20979e-011 -1.0929e-011
